<svg xmlns="http://www.w3.org/2000/svg" xmlns:xlink="http://www.w3.org/1999/xlink" width="400" zoomAndPan="magnify" viewBox="0 0 300 74.999997" height="100" preserveAspectRatio="xMidYMid meet" version="1.0"><defs><g/><clipPath id="0ab008972e"><path d="M 20 25 L 73.5 25 L 73.5 50 L 20 50 Z M 20 25 " clip-rule="nonzero"/></clipPath><clipPath id="e4195b8173"><path d="M 20 49 L 72 49 L 72 74.367188 L 20 74.367188 Z M 20 49 " clip-rule="nonzero"/></clipPath><clipPath id="b72371f4ad"><path d="M 20 0.867188 L 72 0.867188 L 72 26 L 20 26 Z M 20 0.867188 " clip-rule="nonzero"/></clipPath><clipPath id="df311b3e09"><path d="M 128 34 L 152.8125 34 L 152.8125 50.726562 L 128 50.726562 Z M 128 34 " clip-rule="nonzero"/></clipPath><clipPath id="16a73bfc06"><path d="M 127.3125 20.726562 L 152 20.726562 L 152 37 L 127.3125 37 Z M 127.3125 20.726562 " clip-rule="nonzero"/></clipPath></defs><rect x="-30" width="360" fill="#ffffff" y="-7.5" height="89.999996" fill-opacity="1"/><rect x="-30" width="360" fill="#ffffff" y="-7.5" height="89.999996" fill-opacity="1"/><g clip-path="url(#0ab008972e)"><path fill="#f7f7f7" d="M 73.5 37.617188 C 73.5 41.914062 72.761719 46.03125 71.414062 49.867188 L 20.988281 49.867188 L 20.988281 25.367188 L 71.414062 25.367188 C 72.761719 29.199219 73.5 33.320312 73.5 37.617188 Z M 73.5 37.617188 " fill-opacity="1" fill-rule="nonzero"/></g><g clip-path="url(#e4195b8173)"><path fill="#000000" d="M 71.414062 49.867188 C 70.429688 52.652344 69.117188 55.289062 67.519531 57.722656 C 60.957031 67.746094 49.632812 74.367188 36.75 74.367188 C 31.113281 74.367188 25.765625 73.089844 20.988281 70.824219 L 20.988281 49.867188 Z M 71.414062 49.867188 " fill-opacity="1" fill-rule="nonzero"/></g><g clip-path="url(#b72371f4ad)"><path fill="#006f2e" d="M 71.414062 25.367188 L 20.988281 25.367188 L 20.988281 4.40625 C 25.765625 2.140625 31.113281 0.867188 36.75 0.867188 C 49.625 0.867188 60.957031 7.488281 67.519531 17.507812 C 69.109375 19.945312 70.421875 22.578125 71.414062 25.367188 Z M 71.414062 25.367188 " fill-opacity="1" fill-rule="nonzero"/></g><path fill="#f70000" d="M 20.988281 4.40625 L 20.988281 70.824219 C 17.207031 69.03125 13.78125 66.601562 10.84375 63.683594 C 9.03125 61.878906 7.394531 59.878906 5.980469 57.722656 C 2.199219 51.945312 0 45.039062 0 37.617188 C 0 30.191406 2.199219 23.289062 5.980469 17.507812 C 7.386719 15.355469 9.019531 13.351562 10.84375 11.539062 C 13.78125 8.628906 17.207031 6.203125 20.988281 4.40625 Z M 20.988281 4.40625 " fill-opacity="1" fill-rule="nonzero"/><g clip-path="url(#df311b3e09)"><path fill="#000000" d="M 151.988281 34.929688 C 151.480469 34.609375 150.78125 34.738281 150.398438 35.183594 C 147.789062 38.367188 141.429688 38.6875 138.820312 38.6875 C 138.695312 38.6875 138.628906 38.6875 138.503906 38.6875 L 138.503906 35.949219 C 138.503906 35.4375 138.25 34.992188 137.804688 34.800781 C 137.359375 34.609375 136.847656 34.675781 136.46875 34.992188 L 128.582031 41.808594 C 128.328125 42.0625 128.136719 42.382812 128.136719 42.765625 C 128.136719 43.144531 128.261719 43.464844 128.582031 43.71875 L 136.40625 50.40625 C 136.660156 50.597656 136.914062 50.726562 137.230469 50.726562 C 137.421875 50.726562 137.613281 50.664062 137.738281 50.597656 C 138.183594 50.40625 138.441406 49.960938 138.441406 49.453125 L 138.441406 46.902344 C 138.503906 46.902344 138.628906 46.902344 138.757812 46.902344 C 141.621094 46.902344 148.742188 45.886719 152.496094 36.457031 C 152.6875 35.886719 152.496094 35.25 151.988281 34.929688 Z M 151.988281 34.929688 " fill-opacity="1" fill-rule="nonzero"/></g><g clip-path="url(#16a73bfc06)"><path fill="#000000" d="M 128.835938 36.777344 C 129.214844 36.777344 129.535156 36.648438 129.789062 36.332031 C 132.398438 33.144531 138.757812 32.828125 141.367188 32.828125 C 141.492188 32.828125 141.554688 32.828125 141.683594 32.828125 L 141.683594 35.566406 C 141.683594 36.074219 141.9375 36.523438 142.382812 36.714844 C 142.828125 36.902344 143.335938 36.839844 143.71875 36.523438 L 151.542969 29.769531 C 151.796875 29.515625 151.988281 29.195312 151.988281 28.816406 C 151.988281 28.433594 151.859375 28.113281 151.542969 27.859375 L 143.78125 21.109375 C 143.402344 20.789062 142.890625 20.726562 142.445312 20.917969 C 142 21.109375 141.746094 21.554688 141.746094 22.0625 L 141.746094 24.609375 C 141.683594 24.609375 141.554688 24.609375 141.429688 24.609375 C 138.566406 24.609375 131.441406 25.628906 127.691406 35.058594 C 127.4375 35.628906 127.691406 36.265625 128.199219 36.585938 C 128.390625 36.714844 128.644531 36.777344 128.835938 36.777344 Z M 128.835938 36.777344 " fill-opacity="1" fill-rule="nonzero"/></g><g fill="#000000" fill-opacity="1"><g transform="translate(77.425319, 44.999995)"><g><path d="M 0.125 0 L 6.21875 -16.09375 L 10.40625 -16.09375 L 16.5 0 L 12.359375 0 L 11.390625 -2.859375 L 5.234375 -2.859375 L 4.265625 0 Z M 6.265625 -5.953125 L 10.359375 -5.953125 L 8.28125 -12.078125 Z M 6.265625 -5.953125 "/></g></g></g><g fill="#000000" fill-opacity="1"><g transform="translate(94.050002, 44.999995)"><g><path d="M 1.0625 0 L 1.0625 -16.09375 L 13.4375 -16.09375 L 13.4375 -12.75 L 4.859375 -12.75 L 4.859375 -9.953125 L 10.09375 -9.953125 L 10.09375 -6.609375 L 4.859375 -6.609375 L 4.859375 -3.34375 L 13.4375 -3.34375 L 13.4375 0 Z M 1.0625 0 "/></g></g></g><g fill="#000000" fill-opacity="1"><g transform="translate(108.024369, 44.999995)"><g><path d="M 1.0625 0 L 1.0625 -16.09375 L 6.359375 -16.09375 C 7.679688 -16.09375 8.90625 -15.957031 10.03125 -15.6875 C 11.164062 -15.425781 12.15625 -14.984375 13 -14.359375 C 13.84375 -13.742188 14.5 -12.921875 14.96875 -11.890625 C 15.445312 -10.859375 15.6875 -9.578125 15.6875 -8.046875 C 15.6875 -6.503906 15.445312 -5.21875 14.96875 -4.1875 C 14.5 -3.164062 13.84375 -2.34375 13 -1.71875 C 12.15625 -1.101562 11.164062 -0.660156 10.03125 -0.390625 C 8.90625 -0.128906 7.679688 0 6.359375 0 Z M 4.859375 -3.203125 L 6.4375 -3.203125 C 7.125 -3.203125 7.785156 -3.257812 8.421875 -3.375 C 9.054688 -3.488281 9.625 -3.707031 10.125 -4.03125 C 10.632812 -4.363281 11.03125 -4.847656 11.3125 -5.484375 C 11.601562 -6.128906 11.75 -6.984375 11.75 -8.046875 C 11.75 -9.109375 11.601562 -9.960938 11.3125 -10.609375 C 11.03125 -11.265625 10.632812 -11.753906 10.125 -12.078125 C 9.625 -12.410156 9.054688 -12.632812 8.421875 -12.75 C 7.785156 -12.875 7.125 -12.9375 6.4375 -12.9375 L 4.859375 -12.9375 Z M 4.859375 -3.203125 "/></g></g></g><g fill="#000000" fill-opacity="1"><g transform="translate(155.552042, 45.212819)"><g><path d="M 8.90625 0.296875 C 7.226562 0.296875 5.785156 -0.0390625 4.578125 -0.71875 C 3.378906 -1.394531 2.457031 -2.359375 1.8125 -3.609375 C 1.164062 -4.867188 0.84375 -6.351562 0.84375 -8.0625 C 0.84375 -9.757812 1.175781 -11.234375 1.84375 -12.484375 C 2.507812 -13.734375 3.453125 -14.695312 4.671875 -15.375 C 5.898438 -16.0625 7.34375 -16.40625 9 -16.40625 C 10.53125 -16.40625 11.859375 -16.066406 12.984375 -15.390625 C 14.117188 -14.710938 14.992188 -13.804688 15.609375 -12.671875 L 12.234375 -11.4375 C 11.878906 -12.09375 11.394531 -12.5625 10.78125 -12.84375 C 10.164062 -13.125 9.53125 -13.265625 8.875 -13.265625 C 8.132812 -13.265625 7.457031 -13.054688 6.84375 -12.640625 C 6.238281 -12.234375 5.757812 -11.640625 5.40625 -10.859375 C 5.050781 -10.085938 4.875 -9.15625 4.875 -8.0625 C 4.875 -6.375 5.265625 -5.082031 6.046875 -4.1875 C 6.828125 -3.289062 7.785156 -2.84375 8.921875 -2.84375 C 9.535156 -2.84375 10.164062 -2.972656 10.8125 -3.234375 C 11.46875 -3.492188 11.984375 -3.96875 12.359375 -4.65625 L 15.703125 -3.421875 C 15.054688 -2.285156 14.140625 -1.378906 12.953125 -0.703125 C 11.773438 -0.0351562 10.425781 0.296875 8.90625 0.296875 Z M 8.90625 0.296875 "/></g></g></g><g fill="#000000" fill-opacity="1"><g transform="translate(171.780475, 45.212819)"><g><path d="M 9.1875 0.296875 C 7.550781 0.296875 6.101562 -0.046875 4.84375 -0.734375 C 3.59375 -1.429688 2.613281 -2.40625 1.90625 -3.65625 C 1.195312 -4.914062 0.84375 -6.382812 0.84375 -8.0625 C 0.84375 -9.726562 1.195312 -11.1875 1.90625 -12.4375 C 2.613281 -13.695312 3.59375 -14.671875 4.84375 -15.359375 C 6.101562 -16.054688 7.550781 -16.40625 9.1875 -16.40625 C 10.84375 -16.40625 12.296875 -16.054688 13.546875 -15.359375 C 14.804688 -14.671875 15.796875 -13.695312 16.515625 -12.4375 C 17.234375 -11.1875 17.59375 -9.726562 17.59375 -8.0625 C 17.59375 -6.382812 17.234375 -4.914062 16.515625 -3.65625 C 15.796875 -2.40625 14.804688 -1.429688 13.546875 -0.734375 C 12.296875 -0.046875 10.84375 0.296875 9.1875 0.296875 Z M 9.1875 -2.84375 C 9.976562 -2.84375 10.703125 -3.039062 11.359375 -3.4375 C 12.023438 -3.832031 12.550781 -4.414062 12.9375 -5.1875 C 13.332031 -5.957031 13.53125 -6.914062 13.53125 -8.0625 C 13.53125 -9.195312 13.332031 -10.148438 12.9375 -10.921875 C 12.550781 -11.703125 12.023438 -12.285156 11.359375 -12.671875 C 10.703125 -13.066406 9.976562 -13.265625 9.1875 -13.265625 C 8.414062 -13.265625 7.703125 -13.066406 7.046875 -12.671875 C 6.390625 -12.285156 5.863281 -11.703125 5.46875 -10.921875 C 5.070312 -10.148438 4.875 -9.195312 4.875 -8.0625 C 4.875 -6.914062 5.070312 -5.957031 5.46875 -5.1875 C 5.863281 -4.414062 6.390625 -3.832031 7.046875 -3.4375 C 7.703125 -3.039062 8.414062 -2.84375 9.1875 -2.84375 Z M 9.1875 -2.84375 "/></g></g></g><g fill="#000000" fill-opacity="1"><g transform="translate(190.203249, 45.212819)"><g><path d="M 1.0625 0 L 1.0625 -16.109375 L 5.90625 -16.109375 L 12.140625 -4.625 L 12.140625 -16.109375 L 15.828125 -16.109375 L 15.828125 0 L 10.953125 0 L 4.734375 -11.484375 L 4.734375 0 Z M 1.0625 0 "/></g></g></g><g fill="#000000" fill-opacity="1"><g transform="translate(207.082755, 45.212819)"><g><path d="M 5.6875 0 L 0.234375 -16.109375 L 4.203125 -16.109375 L 7.890625 -4.265625 L 11.609375 -16.109375 L 15.578125 -16.109375 L 10.109375 0 Z M 5.6875 0 "/></g></g></g><g fill="#000000" fill-opacity="1"><g transform="translate(222.901257, 45.212819)"><g><path d="M 1.0625 0 L 1.0625 -16.109375 L 13.46875 -16.109375 L 13.46875 -12.765625 L 4.875 -12.765625 L 4.875 -9.96875 L 10.109375 -9.96875 L 10.109375 -6.609375 L 4.875 -6.609375 L 4.875 -3.359375 L 13.46875 -3.359375 L 13.46875 0 Z M 1.0625 0 "/></g></g></g><g fill="#000000" fill-opacity="1"><g transform="translate(236.887127, 45.212819)"><g><path d="M 1.0625 0 L 1.0625 -16.109375 L 7.265625 -16.109375 C 8.660156 -16.109375 9.910156 -15.972656 11.015625 -15.703125 C 12.117188 -15.429688 12.988281 -14.929688 13.625 -14.203125 C 14.257812 -13.484375 14.578125 -12.457031 14.578125 -11.125 C 14.578125 -10.507812 14.460938 -9.898438 14.234375 -9.296875 C 14.003906 -8.691406 13.613281 -8.140625 13.0625 -7.640625 C 12.507812 -7.148438 11.71875 -6.765625 10.6875 -6.484375 L 15.375 0 L 10.953125 0 L 6.59375 -6.078125 L 4.875 -6.078125 L 4.875 0 Z M 4.875 -9.265625 L 7.375 -9.265625 C 8.28125 -9.265625 9.035156 -9.378906 9.640625 -9.609375 C 10.242188 -9.847656 10.546875 -10.335938 10.546875 -11.078125 C 10.546875 -11.828125 10.242188 -12.316406 9.640625 -12.546875 C 9.035156 -12.785156 8.28125 -12.90625 7.375 -12.90625 L 4.875 -12.90625 Z M 4.875 -9.265625 "/></g></g></g><g fill="#000000" fill-opacity="1"><g transform="translate(252.657409, 45.212819)"><g><path d="M 5.546875 0 L 5.546875 -12.765625 L 0.359375 -12.765625 L 0.359375 -16.109375 L 14.515625 -16.109375 L 14.515625 -12.765625 L 9.34375 -12.765625 L 9.34375 0 Z M 5.546875 0 "/></g></g></g><g fill="#000000" fill-opacity="1"><g transform="translate(267.535485, 45.212819)"><g><path d="M 1.0625 0 L 1.0625 -16.109375 L 13.46875 -16.109375 L 13.46875 -12.765625 L 4.875 -12.765625 L 4.875 -9.96875 L 10.109375 -9.96875 L 10.109375 -6.609375 L 4.875 -6.609375 L 4.875 -3.359375 L 13.46875 -3.359375 L 13.46875 0 Z M 1.0625 0 "/></g></g></g><g fill="#000000" fill-opacity="1"><g transform="translate(281.521355, 45.212819)"><g><path d="M 1.0625 0 L 1.0625 -16.109375 L 7.265625 -16.109375 C 8.660156 -16.109375 9.910156 -15.972656 11.015625 -15.703125 C 12.117188 -15.429688 12.988281 -14.929688 13.625 -14.203125 C 14.257812 -13.484375 14.578125 -12.457031 14.578125 -11.125 C 14.578125 -10.507812 14.460938 -9.898438 14.234375 -9.296875 C 14.003906 -8.691406 13.613281 -8.140625 13.0625 -7.640625 C 12.507812 -7.148438 11.71875 -6.765625 10.6875 -6.484375 L 15.375 0 L 10.953125 0 L 6.59375 -6.078125 L 4.875 -6.078125 L 4.875 0 Z M 4.875 -9.265625 L 7.375 -9.265625 C 8.28125 -9.265625 9.035156 -9.378906 9.640625 -9.609375 C 10.242188 -9.847656 10.546875 -10.335938 10.546875 -11.078125 C 10.546875 -11.828125 10.242188 -12.316406 9.640625 -12.546875 C 9.035156 -12.785156 8.28125 -12.90625 7.375 -12.90625 L 4.875 -12.90625 Z M 4.875 -9.265625 "/></g></g></g></svg>