<svg xmlns="http://www.w3.org/2000/svg" xmlns:xlink="http://www.w3.org/1999/xlink" width="200" zoomAndPan="magnify" viewBox="0 0 150 37.5" height="50" preserveAspectRatio="xMidYMid meet" version="1.0"><defs><g/><clipPath id="24ac240ddb"><path d="M 0.988281 0 L 149.011719 0 L 149.011719 37.007812 L 0.988281 37.007812 Z M 0.988281 0 " clip-rule="nonzero"/></clipPath><clipPath id="92b2c08439"><path d="M 11 12 L 37.253906 12 L 37.253906 25 L 11 25 Z M 11 12 " clip-rule="nonzero"/></clipPath><clipPath id="9c3fca7a19"><path d="M 11 24 L 37 24 L 37 36.695312 L 11 36.695312 Z M 11 24 " clip-rule="nonzero"/></clipPath><clipPath id="0b0a6c3e16"><path d="M 11 0.425781 L 37 0.425781 L 37 13 L 11 13 Z M 11 0.425781 " clip-rule="nonzero"/></clipPath><clipPath id="996b6f7f9d"><path d="M 0.988281 2 L 12 2 L 12 35 L 0.988281 35 Z M 0.988281 2 " clip-rule="nonzero"/></clipPath><clipPath id="4da1dd6aff"><path d="M 63.507812 17 L 76 17 L 76 25.90625 L 63.507812 25.90625 Z M 63.507812 17 " clip-rule="nonzero"/></clipPath><clipPath id="d20fdf8247"><path d="M 63.507812 11.101562 L 76 11.101562 L 76 20 L 63.507812 20 Z M 63.507812 11.101562 " clip-rule="nonzero"/></clipPath></defs><g clip-path="url(#24ac240ddb)"><path fill="#ffffff" d="M 0.988281 0 L 149.011719 0 L 149.011719 37.007812 L 0.988281 37.007812 Z M 0.988281 0 " fill-opacity="1" fill-rule="nonzero"/><path fill="#ffffff" d="M 0.988281 0 L 149.011719 0 L 149.011719 37.007812 L 0.988281 37.007812 Z M 0.988281 0 " fill-opacity="1" fill-rule="nonzero"/></g><g clip-path="url(#92b2c08439)"><path fill="#f7f7f7" d="M 37.253906 18.5625 C 37.253906 20.679688 36.890625 22.714844 36.222656 24.605469 L 11.34375 24.605469 L 11.34375 12.515625 L 36.222656 12.515625 C 36.890625 14.410156 37.253906 16.441406 37.253906 18.5625 Z M 37.253906 18.5625 " fill-opacity="1" fill-rule="nonzero"/></g><g clip-path="url(#9c3fca7a19)"><path fill="#000000" d="M 36.222656 24.605469 C 35.738281 25.980469 35.089844 27.28125 34.304688 28.484375 C 31.0625 33.425781 25.476562 36.695312 19.121094 36.695312 C 16.335938 36.695312 13.699219 36.066406 11.34375 34.945312 L 11.34375 24.605469 Z M 36.222656 24.605469 " fill-opacity="1" fill-rule="nonzero"/></g><g clip-path="url(#0b0a6c3e16)"><path fill="#006f2e" d="M 36.222656 12.515625 L 11.34375 12.515625 L 11.34375 2.175781 C 13.699219 1.054688 16.335938 0.425781 19.121094 0.425781 C 25.472656 0.425781 31.0625 3.695312 34.304688 8.640625 C 35.085938 9.839844 35.734375 11.140625 36.222656 12.515625 Z M 36.222656 12.515625 " fill-opacity="1" fill-rule="nonzero"/></g><g clip-path="url(#996b6f7f9d)"><path fill="#f70000" d="M 11.34375 2.175781 L 11.34375 34.945312 C 9.476562 34.0625 7.785156 32.863281 6.335938 31.421875 C 5.441406 30.53125 4.636719 29.546875 3.9375 28.484375 C 2.074219 25.628906 0.988281 22.222656 0.988281 18.5625 C 0.988281 14.898438 2.074219 11.492188 3.9375 8.640625 C 4.632812 7.578125 5.4375 6.589844 6.335938 5.695312 C 7.785156 4.257812 9.476562 3.058594 11.34375 2.175781 Z M 11.34375 2.175781 " fill-opacity="1" fill-rule="nonzero"/></g><g clip-path="url(#4da1dd6aff)"><path fill="#000000" d="M 75.6875 18.109375 C 75.4375 17.953125 75.089844 18.015625 74.902344 18.234375 C 73.613281 19.808594 70.476562 19.964844 69.1875 19.964844 C 69.125 19.964844 69.09375 19.964844 69.03125 19.964844 L 69.03125 18.613281 C 69.03125 18.363281 68.90625 18.140625 68.683594 18.046875 C 68.464844 17.953125 68.214844 17.984375 68.027344 18.140625 L 64.132812 21.503906 C 64.007812 21.628906 63.914062 21.789062 63.914062 21.976562 C 63.914062 22.164062 63.976562 22.320312 64.132812 22.449219 L 67.996094 25.746094 C 68.121094 25.839844 68.246094 25.90625 68.402344 25.90625 C 68.496094 25.90625 68.589844 25.875 68.652344 25.839844 C 68.875 25.746094 69 25.527344 69 25.277344 L 69 24.019531 C 69.03125 24.019531 69.09375 24.019531 69.15625 24.019531 C 70.570312 24.019531 74.085938 23.515625 75.9375 18.863281 C 76.03125 18.582031 75.9375 18.269531 75.6875 18.109375 Z M 75.6875 18.109375 " fill-opacity="1" fill-rule="nonzero"/></g><g clip-path="url(#d20fdf8247)"><path fill="#000000" d="M 64.257812 19.023438 C 64.445312 19.023438 64.605469 18.960938 64.730469 18.800781 C 66.015625 17.230469 69.15625 17.074219 70.445312 17.074219 C 70.507812 17.074219 70.539062 17.074219 70.601562 17.074219 L 70.601562 18.425781 C 70.601562 18.675781 70.726562 18.894531 70.945312 18.992188 C 71.167969 19.085938 71.417969 19.054688 71.605469 18.894531 L 75.46875 15.566406 C 75.59375 15.4375 75.6875 15.28125 75.6875 15.09375 C 75.6875 14.90625 75.625 14.746094 75.46875 14.621094 L 71.636719 11.289062 C 71.449219 11.132812 71.199219 11.101562 70.976562 11.195312 C 70.757812 11.289062 70.632812 11.511719 70.632812 11.761719 L 70.632812 13.019531 C 70.601562 13.019531 70.539062 13.019531 70.476562 13.019531 C 69.0625 13.019531 65.546875 13.523438 63.691406 18.171875 C 63.566406 18.457031 63.691406 18.769531 63.945312 18.925781 C 64.039062 18.992188 64.164062 19.023438 64.257812 19.023438 Z M 64.257812 19.023438 " fill-opacity="1" fill-rule="nonzero"/></g><g fill="#000000" fill-opacity="1"><g transform="translate(39.190123, 22.203947)"><g><path d="M 0.0625 0 L 3.0625 -7.9375 L 5.140625 -7.9375 L 8.140625 0 L 6.09375 0 L 5.625 -1.421875 L 2.578125 -1.421875 L 2.109375 0 Z M 3.09375 -2.9375 L 5.109375 -2.9375 L 4.09375 -5.953125 Z M 3.09375 -2.9375 "/></g></g></g><g fill="#000000" fill-opacity="1"><g transform="translate(47.393092, 22.203947)"><g><path d="M 0.515625 0 L 0.515625 -7.9375 L 6.640625 -7.9375 L 6.640625 -6.296875 L 2.40625 -6.296875 L 2.40625 -4.90625 L 4.984375 -4.90625 L 4.984375 -3.265625 L 2.40625 -3.265625 L 2.40625 -1.65625 L 6.640625 -1.65625 L 6.640625 0 Z M 0.515625 0 "/></g></g></g><g fill="#000000" fill-opacity="1"><g transform="translate(54.28834, 22.203947)"><g><path d="M 0.515625 0 L 0.515625 -7.9375 L 3.140625 -7.9375 C 3.785156 -7.9375 4.390625 -7.867188 4.953125 -7.734375 C 5.515625 -7.609375 6.003906 -7.394531 6.421875 -7.09375 C 6.835938 -6.789062 7.160156 -6.378906 7.390625 -5.859375 C 7.617188 -5.347656 7.734375 -4.71875 7.734375 -3.96875 C 7.734375 -3.207031 7.617188 -2.570312 7.390625 -2.0625 C 7.160156 -1.5625 6.835938 -1.15625 6.421875 -0.84375 C 6.003906 -0.539062 5.515625 -0.320312 4.953125 -0.1875 C 4.390625 -0.0625 3.785156 0 3.140625 0 Z M 2.40625 -1.578125 L 3.171875 -1.578125 C 3.515625 -1.578125 3.84375 -1.601562 4.15625 -1.65625 C 4.46875 -1.71875 4.75 -1.828125 5 -1.984375 C 5.25 -2.148438 5.441406 -2.390625 5.578125 -2.703125 C 5.722656 -3.023438 5.796875 -3.445312 5.796875 -3.96875 C 5.796875 -4.488281 5.722656 -4.910156 5.578125 -5.234375 C 5.441406 -5.554688 5.25 -5.796875 5 -5.953125 C 4.75 -6.117188 4.46875 -6.234375 4.15625 -6.296875 C 3.84375 -6.359375 3.515625 -6.390625 3.171875 -6.390625 L 2.40625 -6.390625 Z M 2.40625 -1.578125 "/></g></g></g><g fill="#000000" fill-opacity="1"><g transform="translate(62.446444, 22.203947)"><g/></g></g><g fill="#000000" fill-opacity="1"><g transform="translate(77.739495, 22.308959)"><g><path d="M 4.390625 0.140625 C 3.566406 0.140625 2.859375 -0.0234375 2.265625 -0.359375 C 1.671875 -0.691406 1.210938 -1.164062 0.890625 -1.78125 C 0.578125 -2.40625 0.421875 -3.140625 0.421875 -3.984375 C 0.421875 -4.816406 0.582031 -5.539062 0.90625 -6.15625 C 1.238281 -6.769531 1.707031 -7.242188 2.3125 -7.578125 C 2.914062 -7.921875 3.625 -8.09375 4.4375 -8.09375 C 5.195312 -8.09375 5.851562 -7.925781 6.40625 -7.59375 C 6.96875 -7.257812 7.398438 -6.8125 7.703125 -6.25 L 6.03125 -5.640625 C 5.863281 -5.960938 5.628906 -6.191406 5.328125 -6.328125 C 5.023438 -6.472656 4.707031 -6.546875 4.375 -6.546875 C 4.007812 -6.546875 3.675781 -6.441406 3.375 -6.234375 C 3.070312 -6.035156 2.832031 -5.742188 2.65625 -5.359375 C 2.488281 -4.972656 2.40625 -4.515625 2.40625 -3.984375 C 2.40625 -3.140625 2.597656 -2.5 2.984375 -2.0625 C 3.367188 -1.625 3.84375 -1.40625 4.40625 -1.40625 C 4.707031 -1.40625 5.019531 -1.46875 5.34375 -1.59375 C 5.664062 -1.71875 5.914062 -1.953125 6.09375 -2.296875 L 7.75 -1.6875 C 7.4375 -1.125 6.988281 -0.675781 6.40625 -0.34375 C 5.820312 -0.0195312 5.148438 0.140625 4.390625 0.140625 Z M 4.390625 0.140625 "/></g></g></g><g fill="#000000" fill-opacity="1"><g transform="translate(85.746945, 22.308959)"><g><path d="M 4.53125 0.140625 C 3.726562 0.140625 3.015625 -0.0234375 2.390625 -0.359375 C 1.773438 -0.703125 1.289062 -1.179688 0.9375 -1.796875 C 0.59375 -2.421875 0.421875 -3.148438 0.421875 -3.984375 C 0.421875 -4.804688 0.59375 -5.523438 0.9375 -6.140625 C 1.289062 -6.765625 1.773438 -7.242188 2.390625 -7.578125 C 3.015625 -7.921875 3.726562 -8.09375 4.53125 -8.09375 C 5.351562 -8.09375 6.070312 -7.921875 6.6875 -7.578125 C 7.3125 -7.242188 7.796875 -6.765625 8.140625 -6.140625 C 8.492188 -5.523438 8.671875 -4.804688 8.671875 -3.984375 C 8.671875 -3.148438 8.492188 -2.421875 8.140625 -1.796875 C 7.796875 -1.179688 7.3125 -0.703125 6.6875 -0.359375 C 6.070312 -0.0234375 5.351562 0.140625 4.53125 0.140625 Z M 4.53125 -1.40625 C 4.925781 -1.40625 5.285156 -1.5 5.609375 -1.6875 C 5.929688 -1.882812 6.1875 -2.171875 6.375 -2.546875 C 6.570312 -2.929688 6.671875 -3.410156 6.671875 -3.984375 C 6.671875 -4.546875 6.570312 -5.015625 6.375 -5.390625 C 6.1875 -5.773438 5.929688 -6.0625 5.609375 -6.25 C 5.285156 -6.445312 4.925781 -6.546875 4.53125 -6.546875 C 4.15625 -6.546875 3.800781 -6.445312 3.46875 -6.25 C 3.144531 -6.0625 2.882812 -5.773438 2.6875 -5.390625 C 2.5 -5.015625 2.40625 -4.546875 2.40625 -3.984375 C 2.40625 -3.410156 2.5 -2.929688 2.6875 -2.546875 C 2.882812 -2.171875 3.144531 -1.882812 3.46875 -1.6875 C 3.800781 -1.5 4.15625 -1.40625 4.53125 -1.40625 Z M 4.53125 -1.40625 "/></g></g></g><g fill="#000000" fill-opacity="1"><g transform="translate(94.83713, 22.308959)"><g><path d="M 0.53125 0 L 0.53125 -7.953125 L 2.921875 -7.953125 L 5.984375 -2.28125 L 5.984375 -7.953125 L 7.8125 -7.953125 L 7.8125 0 L 5.40625 0 L 2.328125 -5.671875 L 2.328125 0 Z M 0.53125 0 "/></g></g></g><g fill="#000000" fill-opacity="1"><g transform="translate(103.165834, 22.308959)"><g><path d="M 2.8125 0 L 0.125 -7.953125 L 2.078125 -7.953125 L 3.890625 -2.109375 L 5.734375 -7.953125 L 7.6875 -7.953125 L 4.984375 0 Z M 2.8125 0 "/></g></g></g><g fill="#000000" fill-opacity="1"><g transform="translate(110.971017, 22.308959)"><g><path d="M 0.53125 0 L 0.53125 -7.953125 L 6.640625 -7.953125 L 6.640625 -6.296875 L 2.40625 -6.296875 L 2.40625 -4.921875 L 4.984375 -4.921875 L 4.984375 -3.265625 L 2.40625 -3.265625 L 2.40625 -1.65625 L 6.640625 -1.65625 L 6.640625 0 Z M 0.53125 0 "/></g></g></g><g fill="#000000" fill-opacity="1"><g transform="translate(117.87194, 22.308959)"><g><path d="M 0.53125 0 L 0.53125 -7.953125 L 3.578125 -7.953125 C 4.273438 -7.953125 4.894531 -7.882812 5.4375 -7.75 C 5.976562 -7.613281 6.40625 -7.367188 6.71875 -7.015625 C 7.03125 -6.660156 7.1875 -6.148438 7.1875 -5.484375 C 7.1875 -5.179688 7.128906 -4.878906 7.015625 -4.578125 C 6.910156 -4.285156 6.71875 -4.015625 6.4375 -3.765625 C 6.164062 -3.523438 5.78125 -3.335938 5.28125 -3.203125 L 7.578125 0 L 5.40625 0 L 3.25 -3 L 2.40625 -3 L 2.40625 0 Z M 2.40625 -4.578125 L 3.640625 -4.578125 C 4.085938 -4.578125 4.457031 -4.632812 4.75 -4.75 C 5.050781 -4.863281 5.203125 -5.101562 5.203125 -5.46875 C 5.203125 -5.84375 5.050781 -6.085938 4.75 -6.203125 C 4.457031 -6.316406 4.085938 -6.375 3.640625 -6.375 L 2.40625 -6.375 Z M 2.40625 -4.578125 "/></g></g></g><g fill="#000000" fill-opacity="1"><g transform="translate(125.653329, 22.308959)"><g><path d="M 2.734375 0 L 2.734375 -6.296875 L 0.171875 -6.296875 L 0.171875 -7.953125 L 7.171875 -7.953125 L 7.171875 -6.296875 L 4.609375 -6.296875 L 4.609375 0 Z M 2.734375 0 "/></g></g></g><g fill="#000000" fill-opacity="1"><g transform="translate(132.994486, 22.308959)"><g><path d="M 0.53125 0 L 0.53125 -7.953125 L 6.640625 -7.953125 L 6.640625 -6.296875 L 2.40625 -6.296875 L 2.40625 -4.921875 L 4.984375 -4.921875 L 4.984375 -3.265625 L 2.40625 -3.265625 L 2.40625 -1.65625 L 6.640625 -1.65625 L 6.640625 0 Z M 0.53125 0 "/></g></g></g><g fill="#000000" fill-opacity="1"><g transform="translate(139.895409, 22.308959)"><g><path d="M 0.53125 0 L 0.53125 -7.953125 L 3.578125 -7.953125 C 4.273438 -7.953125 4.894531 -7.882812 5.4375 -7.75 C 5.976562 -7.613281 6.40625 -7.367188 6.71875 -7.015625 C 7.03125 -6.660156 7.1875 -6.148438 7.1875 -5.484375 C 7.1875 -5.179688 7.128906 -4.878906 7.015625 -4.578125 C 6.910156 -4.285156 6.71875 -4.015625 6.4375 -3.765625 C 6.164062 -3.523438 5.78125 -3.335938 5.28125 -3.203125 L 7.578125 0 L 5.40625 0 L 3.25 -3 L 2.40625 -3 L 2.40625 0 Z M 2.40625 -4.578125 L 3.640625 -4.578125 C 4.085938 -4.578125 4.457031 -4.632812 4.75 -4.75 C 5.050781 -4.863281 5.203125 -5.101562 5.203125 -5.46875 C 5.203125 -5.84375 5.050781 -6.085938 4.75 -6.203125 C 4.457031 -6.316406 4.085938 -6.375 3.640625 -6.375 L 2.40625 -6.375 Z M 2.40625 -4.578125 "/></g></g></g></svg>